<svg width="228" height="228" viewBox="0 0 228 228" fill="none" xmlns="http://www.w3.org/2000/svg">
<path d="M113.763 7.15286C112.733 7.18588 111.721 7.44227 110.799 7.90433L11.0493 57.7793C9.87259 58.371 8.88289 59.2772 8.19013 60.3974C7.49738 61.5176 7.12869 62.8079 7.125 64.125V163.875C7.12869 165.192 7.49738 166.482 8.19013 167.603C8.88289 168.723 9.87259 169.629 11.0493 170.221L110.799 220.096C111.792 220.595 112.888 220.855 114 220.855C115.112 220.855 116.208 220.595 117.201 220.096L216.951 170.221C218.127 169.629 219.117 168.723 219.81 167.603C220.503 166.482 220.871 165.192 220.875 163.875V64.125C220.871 62.8079 220.503 61.5176 219.81 60.3974C219.117 59.2772 218.127 58.371 216.951 57.7793L117.201 7.90433C116.136 7.37043 114.954 7.11207 113.763 7.15286ZM114 22.2239L197.788 64.125L114 106.026L77.8044 87.9214L88.3528 81.4366C89.1946 80.9682 89.9327 80.334 90.5225 79.5723C91.1123 78.8106 91.5415 77.9372 91.7842 77.005C92.0268 76.0727 92.0779 75.1009 91.9343 74.1483C91.7908 73.1957 91.4555 72.2822 90.9488 71.4628C90.4422 70.6435 89.7746 69.9354 88.9865 69.3814C88.1984 68.8274 87.3062 68.4389 86.3637 68.2395C85.4212 68.0401 84.4481 68.0339 83.5031 68.2213C82.5582 68.4087 81.6611 68.7857 80.866 69.3296L62.8447 80.4346L30.2117 64.125L114 22.2239ZM21.375 75.6614L56.1511 93.0564V132.383C56.1511 134.273 56.9018 136.085 58.238 137.421C59.5742 138.757 61.3865 139.508 63.2761 139.508C65.1658 139.508 66.9781 138.757 68.3143 137.421C69.6505 136.085 70.4011 134.273 70.4011 132.383V100.181L106.875 118.411V202.214L21.375 159.464V75.6614ZM206.625 75.6614V159.464L121.125 202.214V118.411L206.625 75.6614ZM187.198 134.526C185.995 134.513 184.807 134.805 183.747 135.375L148.122 153.188C146.433 154.03 145.147 155.509 144.547 157.299C143.947 159.088 144.081 161.043 144.921 162.734C145.518 163.921 146.435 164.918 147.569 165.611C148.703 166.305 150.008 166.667 151.337 166.658C152.422 166.659 153.493 166.411 154.468 165.935L190.093 148.122C191.562 147.446 192.757 146.289 193.481 144.844C194.206 143.398 194.417 141.749 194.081 140.167C193.744 138.585 192.879 137.165 191.628 136.14C190.378 135.115 188.815 134.546 187.198 134.526Z" fill="white"/>
</svg>
